<?xml version="1.0" encoding="utf-8"?>
<!-- Generator: Adobe Illustrator 19.0.1, SVG Export Plug-In . SVG Version: 6.00 Build 0)  -->
<svg version="1.1" id="Layer_1" xmlns="http://www.w3.org/2000/svg" xmlns:xlink="http://www.w3.org/1999/xlink" x="0px" y="0px"
	 viewBox="0 0 500 150" style="enable-background:new 0 0 500 150;" xml:space="preserve">
<style type="text/css">
	.st0{fill:#373737;}
</style>
<g>
	<path class="st0" d="M497.5,73.3c-1.9,0-3.8,0-5.8,0c0-0.5-0.1-0.9-0.1-1.3c0-6.9,0-13.9,0-20.8c0-1.2,0-1.2-1.2-1.2
		c-8.3,0-16.7,0-25,0c-0.8,0-1.1,0.2-1.1,1.1c0,7,0,14,0,21c0,0.4,0,0.7,0,1.1c-2,0-3.8,0-5.8,0c0-17.7,0-35.4,0-53.1
		c1.9,0,3.7,0,5.7,0c0,0.4,0.1,0.7,0.1,1.1c0,7.4,0,14.8,0,22.2c0,0.8,0.2,1.2,1.1,1.2c8.4,0,16.8,0,25.2,0c0.8,0,1-0.2,1-1
		c0-7.4,0-14.8,0-22.3c0-0.4,0-0.7,0-1.3c2,0,4,0,5.9,0C497.5,37.7,497.5,55.5,497.5,73.3z"/>
	<path class="st0" d="M2.5,73.1c1.2-2.7,2.5-5.4,3.7-8.2c1.6-3.7,3.2-7.3,4.8-11c0.2-0.4,0.2-1,0-1.3c-0.7-1.5-1.6-2.9-2.4-4.3
		c-0.1-0.3-0.3-0.5-0.6-0.9c1.7,0.2,3.2,0.4,4.7,0.7c0.7,0.1,1,0,1.2-0.7C18,38,22.2,28.5,26.4,19c0.2-0.4,0.4-0.8,0.7-1.4
		c8,18.6,15.9,37.1,23.9,55.7c-1.7,0-3.3-0.1-4.8,0c-1.2,0.1-2-0.3-2.8-1.3C36.5,63.6,28,57.9,17.7,54.8c-0.2-0.1-0.4-0.1-0.7-0.2
		c-0.6,1.4-1.2,2.8-1.8,4.2c-2,4.6-3.9,9.2-5.9,13.8c-0.2,0.6-0.5,0.8-1.1,0.7c-1.9,0-3.8,0-5.7,0C2.5,73.2,2.5,73.2,2.5,73.1z
		 M26.9,31.4c-2.7,6.2-5.2,12.2-7.8,18.2c7.1,2.1,13.6,5.5,19.5,9.9C34.8,50.2,30.9,40.9,26.9,31.4z"/>
	<path class="st0" d="M374.7,17.5c0.2,0.5,0.3,1,0.5,1.4c7.6,17.8,15.2,35.5,22.9,53.3c0.1,0.3,0.2,0.6,0.4,1c-2.2,0-4.2,0-6.3,0
		c-0.2,0-0.4-0.3-0.6-0.5c-5.9-7.5-13.2-13-22.1-16.5c-1.6-0.6-3.2-1.1-4.9-1.7c-0.9,2.2-1.8,4.2-2.7,6.3c-1.7,3.9-3.3,7.8-5,11.7
		c-0.2,0.5-0.5,0.8-1.1,0.8c-1.8,0-3.7,0-5.6,0c0.2-0.4,0.3-0.7,0.4-1c2.7-6.1,5.3-12.2,8-18.3c0.3-0.6,0.3-1.1-0.1-1.6
		c-0.8-1.4-1.6-2.8-2.5-4.3c-0.1-0.2-0.2-0.4-0.4-0.7c1.6,0.2,3.2,0.4,4.6,0.7c0.8,0.2,1-0.1,1.3-0.7c3.6-8.3,7.3-16.6,10.9-24.9
		c0.7-1.6,1.4-3.3,2.1-4.9C374.6,17.5,374.6,17.5,374.7,17.5z M374.4,31.4c-2.6,6.2-5.2,12.1-7.8,18.2c7.1,2.2,13.5,5.5,19.3,10
		c0.1,0,0.1-0.1,0.2-0.1C382.2,50.2,378.4,40.9,374.4,31.4z"/>
	<path class="st0" d="M343.3,134.7c-0.9-0.2-1.8-0.4-2.8-0.6c-6.9-1.6-11.3-7.3-11.4-14.3c-0.1-3.9,0.7-7.5,3.2-10.6
		c2.8-3.5,6.5-5.3,10.8-5.8c4-0.5,7.9,0.1,11.6,2c4.2,2.2,6.7,5.7,7.3,10.5c0.5,4.3-0.1,8.3-2.5,11.9c-2.7,4-6.5,5.9-11.1,6.7
		c-0.3,0-0.6,0.1-0.9,0.2C346.1,134.7,344.7,134.7,343.3,134.7z M357.9,117.6c-0.1-0.9-0.2-2.3-0.5-3.6c-1.2-4.9-4.2-8.1-9.1-9
		c-5-0.9-9.5,0.4-12.3,4.9c-3.4,5.6-3.7,11.6-0.7,17.4c3.4,6.8,12.9,8,18.3,2.6C356.8,126.7,358,122.6,357.9,117.6z"/>
	<path class="st0" d="M143.3,134.7c-1.2-0.2-2.4-0.4-3.6-0.8c-6.3-1.7-10.4-7-10.7-13.5c-0.2-3.6,0.4-7.1,2.4-10.2
		c2.4-3.7,5.8-5.8,10.1-6.6c4.9-0.9,9.6-0.3,13.9,2.3c4.2,2.6,6.3,6.4,6.5,11.3c0.2,3.4-0.4,6.6-2.1,9.6c-2.6,4.5-6.7,6.8-11.8,7.6
		c-0.3,0-0.7,0.1-1,0.2C145.9,134.7,144.6,134.7,143.3,134.7z M133.3,119.7c-0.1,2.7,0.5,5.5,2,8.1c3.9,6.7,15.1,7.9,20-0.4
		c2.4-4,2.7-8.3,2-12.8c-0.8-4.8-4.4-8.7-9.2-9.6c-5.3-1-10.1,1-12.7,5.4C133.9,113.2,133.3,116.3,133.3,119.7z"/>
	<path class="st0" d="M263,134.7c-0.8-0.2-1.6-0.3-2.4-0.5c-6.2-1.5-10.2-6-11-12.3c-0.4-3.5-0.2-6.8,1.3-10c2.1-4.5,5.8-7,10.5-8
		c4.7-1,9.2-0.5,13.6,1.3c0.1,0.1,0.3,0.1,0.4,0.2c-0.3,1.1-0.6,2.2-0.9,3.4c-0.3-0.2-0.5-0.3-0.6-0.5c-4.7-4.3-11.5-4.5-16-0.4
		c-2.2,2-3.3,4.6-3.9,7.5c-0.7,3.9-0.5,7.7,1.3,11.3c2.8,5.5,8.8,7.7,14.8,5.4c1.4-0.5,2.6-1.4,3.9-2c0.2-0.1,0.4-0.3,0.8-0.6
		c-0.1,1-0.1,1.8-0.3,2.5c0,0.2-0.4,0.5-0.6,0.6c-1.9,1.1-3.9,1.6-6,1.9c-0.3,0-0.6,0.1-0.9,0.2C265.8,134.7,264.4,134.7,263,134.7z
		"/>
	<path class="st0" d="M108.5,134.7c-0.8-0.2-1.7-0.3-2.5-0.5c-6.2-1.5-10.2-6.2-10.9-12.6c-0.3-2.6-0.2-5.3,0.6-7.8
		c1.2-4,3.8-6.8,7.5-8.7c5.3-2.6,12.5-2.2,17.8,0.3c-0.2,0.5-0.3,1.1-0.5,1.6c-0.1,0.6-0.3,1.1-0.5,1.8c-0.3-0.3-0.6-0.5-0.8-0.7
		c-5.2-4.9-13.7-4-17.5,1.8c-2.2,3.4-2.7,7.1-2.4,11.1c0.2,2.7,1,5.2,2.6,7.4c2.8,3.9,7.9,5.5,12.8,3.9c1.7-0.6,3.3-1.6,4.9-2.4
		c0.2-0.1,0.4-0.3,0.7-0.5c-0.1,0.9-0.1,1.6-0.2,2.3c0,0.3-0.3,0.6-0.6,0.7c-1.9,1.1-3.9,1.7-6,2c-0.4,0-0.7,0.1-1.1,0.2
		C111.1,134.7,109.8,134.7,108.5,134.7z"/>
	<path class="st0" d="M218.1,46.7c0.1,14.9-12,27.1-27,27.4c-15.7,0.4-28.4-12.1-28.4-27.4c0-14.8,12-27.7,27.7-27.6
		C206.4,19.1,218.2,32.2,218.1,46.7z M190.4,24.6c-11.5-0.2-21.5,9.2-21.8,21.4c-0.3,12.4,9.7,22.5,21.6,22.6c12.1,0.1,22-9.9,22-22
		C212.2,34.5,202.5,24.7,190.4,24.6z"/>
	<path class="st0" d="M281.5,30.6c-1.5,1.4-2.8,2.7-4.2,4c-0.9-1.1-1.8-2.2-2.7-3.3c-8.1-9.3-21.7-8.4-29.6-0.8
		c-4.7,4.6-7.2,10.1-7,16.7c0.2,8.2,4.2,14.4,11.2,18.5c8.6,5.1,18.1,3,24.2-2.9c3-2.9,4.7-6.5,4.8-10.9c-0.3,0-0.7,0-1,0
		c-2.8,0-5.6,0-8.3,0c-0.6,0-1-0.2-1.4-0.6c-1.4-1.4-2.8-2.8-4.2-4.2c-0.2-0.2-0.4-0.3-0.7-0.6c7.4,0,14.6,0,21.9,0
		c0,1.5,0.1,3,0,4.5c-0.2,4-1.1,7.9-3.3,11.4c-3.9,6.1-9.5,9.7-16.5,11.2c-14.6,3-29-6.8-32.1-21.5c-2.4-11.4,3.3-23.8,13.7-29.4
		c8.3-4.4,16.8-4.9,25.3-0.8C275.6,23.9,278.7,27,281.5,30.6z"/>
	<path class="st0" d="M307.4,25.5c0,16.1,0,31.8,0,47.8c-1.1,0-2.1,0-3.1,0c-0.7,0-1.4,0-2.1,0c-0.5,0-0.7-0.2-0.7-0.7
		c0-0.4,0-0.9,0-1.3c0-16.6,0-33.2,0-49.9c0-0.4,0-0.8,0-1.3c0.2-0.1,0.3-0.1,0.4-0.1c4.7,0.1,9.4,0,14.1,0.3
		c8.4,0.7,13.7,6.9,13.4,15.2c-0.3,5.8-2.8,10.3-8.3,12.8c-0.1,0.1-0.3,0.1-0.5,0.3c4.8,8.2,9.6,16.3,14.5,24.6c-2.4,0-4.5,0-6.7,0
		c-0.3,0-0.6-0.4-0.8-0.7c-3.4-5.9-6.7-11.8-10-17.7c-1.8-3.2-3.6-6.4-5.4-9.6c-0.1-0.2-0.2-0.4-0.3-0.6c1.5-0.2,3-0.3,4.4-0.6
		c5.5-1.2,7.7-4.9,7.2-10.2c-0.4-4.9-3-7.3-8.3-7.9C312.6,25.5,310,25.6,307.4,25.5z"/>
	<path class="st0" d="M97.6,20.1c2,0,3.8,0,5.8,0c0,0.4,0.1,0.7,0.1,1.1c0,10.9,0,21.8,0,32.7c0,3.1-0.1,6.2-1.3,9.1
		c-2.4,5.7-6.9,9.2-12.8,10.6c-7.6,1.8-14.3-0.2-19.7-5.9c-2.7-2.9-3.9-6.4-4-10.3c-0.2-5.2-0.1-10.5-0.2-15.8c0-6.8,0-13.6,0-20.3
		c0-0.4,0-0.7,0-1.2c1.9,0,3.7,0,5.5,0c0.2,0,0.4,0.3,0.4,0.5c0.1,0.2,0,0.5,0,0.7c0,10.9,0,21.8,0,32.7c0,2.5,0.1,5,1.1,7.3
		c1.6,3.9,4.7,6,8.6,6.9c5.1,1.2,9.5-0.1,13.2-3.7c2-1.9,2.8-4.4,3-7.1c0.1-1.7,0.2-3.4,0.2-5.1c0-10.4,0-20.8,0-31.3
		C97.6,20.7,97.6,20.4,97.6,20.1z"/>
	<path class="st0" d="M413.4,73.2c0-17.8,0-35.5,0-53.1c0.1-0.1,0.1-0.1,0.1-0.1c5.5,0,11.1-0.5,16.6,0.7
		c6.3,1.3,10.5,6.3,11.1,12.7c0.4,4.8-0.9,9.1-4.4,12.5c-2.3,2.2-5.2,3.4-8.3,3.7c-2.6,0.3-5.2,0.3-7.9,0.4c-0.4,0-0.8,0-1.3,0
		c0,0.4,0,0.8,0,1.2c0,7,0,14.1,0,21.1c0,0.9-0.2,1.1-1.1,1.1C416.7,73.2,415.1,73.2,413.4,73.2z M419.4,44.4
		c3.5,0,6.9,0.3,10.2-0.9c3.1-1.1,5.1-3.2,5.6-6.5c0.2-1.5,0.2-3,0-4.5c-0.4-2.9-2.1-4.9-4.9-6c-3.5-1.3-7.2-1-10.9-1
		C419.4,31.9,419.4,38.1,419.4,44.4z"/>
	<path class="st0" d="M136.8,73.2c-2.1,0-4,0-6,0c0-15.9,0-31.7,0-47.6c-4.3,0-8.5,0-12.8,0c0-1.9,0-3.6,0-5.5c0.3,0,0.6-0.1,1-0.1
		c9.9,0,19.9,0,29.8,0c0.7,0,1,0.2,0.9,0.9c0,1.5,0,3,0,4.7c-4.4,0-8.6,0-12.9,0C136.8,41.5,136.8,57.3,136.8,73.2z"/>
	<path class="st0" d="M396.1,126.6c0-7.5,0-15,0-22.5c0.9,0,1.6,0,2.4,0c0,10,0,20,0,30c-0.8,0.2-1.3,0-1.9-0.6
		c-5.2-5.9-10.5-11.7-15.8-17.6c-1.5-1.6-2.9-3.3-4.4-4.9c-0.2-0.2-0.5-0.4-0.9-0.8c0,8.2,0,16,0,23.9c-0.9,0-1.7,0-2.5,0
		c0-0.3,0-0.6,0-0.9c0-9.3,0-18.6,0-27.9c0-0.4,0.1-1.2,0.3-1.2c0.6-0.2,1.3-0.2,1.9,0.5c1.9,2.2,4,4.3,5.9,6.5
		c4.6,5,9.3,10.1,13.9,15.1c0.2,0.3,0.5,0.5,0.8,0.7C395.9,126.7,396,126.7,396.1,126.6z"/>
	<path class="st0" d="M229.2,132.1c4-0.2,7.9-0.3,11.9-0.5c0,0.7,0,1.5,0,2.4c-5.2,0-10.4,0-15.7,0c0-10,0-19.9,0-29.9
		c5.1,0,10.3,0,15.5,0c0,0.8,0,1.6,0,2.3c-3.8-0.1-7.7-0.3-11.6-0.4c0,3.8,0,7.4,0,11.1c3.5,0,7.1,0,10.6,0c0,0.7,0,1.4,0,2.1
		c-3.5,0-7,0-10.6,0C229.2,123.4,229.2,127.6,229.2,132.1z"/>
	<path class="st0" d="M292.2,134.2c0-9.4,0-18.7,0-28.2c-3.2,0.2-6.3,0.3-9.5,0.5c0-0.7,0-1.5,0-2.4c7.5,0,15,0,22.5,0
		c0,0.8,0,1.6,0,2.4c-3-0.2-6-0.3-9.1-0.5c0,9.5,0,18.8,0,28.2C294.7,134.2,293.5,134.2,292.2,134.2z"/>
	<path class="st0" d="M202.6,132.1c4.2-0.2,8.1-0.4,12.1-0.5c0,0.7,0,1.5,0,2.4c-5.3,0-10.6,0-15.9,0c0-10,0-19.9,0-29.9
		c1.2,0,2.5,0,3.8,0C202.6,113.3,202.6,122.6,202.6,132.1z"/>
	<path class="st0" d="M188.2,131.6c0,0.7,0,1.5,0,2.4c-5.3,0-10.5,0-15.8,0c0-10,0-19.9,0-29.9c1.2,0,2.4,0,3.8,0c0,9.3,0,18.6,0,28
		C180.2,131.9,184.2,131.7,188.2,131.6z"/>
	<path class="st0" d="M318.6,104.1c0,10,0,20,0,30c-1.2,0-2.5,0-3.8,0c0-0.3,0-0.6,0-0.9c0-9.4,0-18.8,0-28.2c0-0.9,0.2-1.1,1.1-1
		C316.7,104.2,317.6,104.1,318.6,104.1z"/>
	<path class="st0" d="M409.8,107.6c1.1-1.1,1.1-2.9,2.6-3.8c0.3,2,0.5,3.8,0.7,5.6c-0.4,0-0.8,0-1.2,0c-0.1-1.1-0.2-2.2-0.3-3.2
		c-0.1,0-0.1,0-0.2-0.1c-0.6,1.1-1.1,2.2-1.8,3.6c-0.7-1.3-1.2-2.4-1.8-3.5c-0.1,0-0.1,0-0.2,0c-0.1,0.9-0.1,1.8-0.3,2.7
		c0,0.2-0.2,0.4-0.4,0.6c-0.1-0.2-0.3-0.4-0.2-0.6c0.2-1.4,0.4-2.8,0.6-4.3c0-0.2,0.2-0.4,0.4-0.6c0.2,0.1,0.5,0.2,0.6,0.4
		C408.7,105.4,409.2,106.5,409.8,107.6z"/>
	<path class="st0" d="M405.7,104.1c-0.1,0.3-0.2,0.6-0.3,0.8c-0.2-0.2-0.4-0.5-0.5-0.5c-0.4,0-0.9,0.1-1.3,0.2
		c0.1,0.4,0.2,0.8,0.4,1.1c0.2,0.3,0.6,0.4,0.9,0.6c0.8,0.4,1.1,1.1,0.9,2c-0.2,0.9-0.9,1.2-1.7,1.3c-0.3,0-0.5,0-0.8,0
		c-0.8-0.1-1-0.5-0.7-1c0.5,0.2,1,0.4,1.5,0.5c0.2,0,0.6-0.3,0.7-0.6c0.1-0.2-0.1-0.6-0.2-0.8c-0.3-0.3-0.7-0.4-1-0.6
		c-1-0.5-1.3-1.3-1-2.2c0.3-0.8,1.2-1.3,2.2-1C405.1,103.9,405.3,104,405.7,104.1z"/>
</g>
</svg>
